PathFileType	4	(X/Y/Z)	 static.trc
DataRate	CameraRate	NumFrames	NumMarkers	Units	OrigDataRate	OrigDataStartFrame	OrigNumFrames
200	200	8	43	m	200	51	400
Frame#	Time	C7			LSH			RSH			MAN			RASI			LASI			HIPR			HIPL			RPSI			LPSI			COX			RTHI1			RTHI2			RTHI3			RTHI4			RLKN			RMKN			RSHA1			RSHA2			RSHA3			RSHA4			RLMAL			RMMAL			RHEEL			RMET5			RMET1			RTOE			LTHI1			LTHI2			LTHI3			LTHI4			LLKN			LMKN			LSHA1			LSHA2			LSHA3			LSHA4			LLMAL			LMMAL			LHEEL			LMET5			LMET1			LTOE			
		X1	Y1	Z1	X2	Y2	Z2	X3	Y3	Z3	X4	Y4	Z4	X5	Y5	Z5	X6	Y6	Z6	X7	Y7	Z7	X8	Y8	Z8	X9	Y9	Z9	X10	Y10	Z10	X11	Y11	Z11	X12	Y12	Z12	X13	Y13	Z13	X14	Y14	Z14	X15	Y15	Z15	X16	Y16	Z16	X17	Y17	Z17	X18	Y18	Z18	X19	Y19	Z19	X20	Y20	Z20	X21	Y21	Z21	X22	Y22	Z22	X23	Y23	Z23	X24	Y24	Z24	X25	Y25	Z25	X26	Y26	Z26	X27	Y27	Z27	X28	Y28	Z28	X29	Y29	Z29	X30	Y30	Z30	X31	Y31	Z31	X32	Y32	Z32	X33	Y33	Z33	X34	Y34	Z34	X35	Y35	Z35	X36	Y36	Z36	X37	Y37	Z37	X38	Y38	Z38	X39	Y39	Z39	X40	Y40	Z40	X41	Y41	Z41	X42	Y42	Z42	X43	Y43	Z43	
51	0.2550	-0.375050	1.341383	-0.530861	-0.299398	1.311646	-0.690919	-0.299942	1.306804	-0.371161	-0.256377	1.281770	-0.530626	-0.211293	0.858390	-0.416365	-0.236348	0.853762	-0.653812	-0.253388	0.927682	-0.390956	-0.269956	0.923158	-0.668724	-0.385427	0.899764	-0.484582	-0.393475	0.897591	-0.555599	-0.386054	0.904998	-0.518813	-0.325980	0.694716	-0.343474	-0.316957	0.635282	-0.343222	-0.252749	0.641301	-0.346646	-0.253318	0.702928	-0.347188	-0.315160	0.429662	-0.367381	-0.325544	0.416883	-0.489357	-0.373379	0.251612	-0.352474	-0.373184	0.208825	-0.363117	-0.312205	0.215118	-0.361529	-0.319617	0.254037	-0.351456	-0.336228	0.072651	-0.378218	-0.321734	0.081212	-0.456850	-0.386796	0.046835	-0.412496	-0.225070	0.032885	-0.357797	-0.191929	0.043891	-0.430395	-0.168144	0.035225	-0.427429	-0.358848	0.701054	-0.699295	-0.342779	0.642084	-0.706307	-0.278759	0.653845	-0.711652	-0.287634	0.713143	-0.706936	-0.347457	0.421859	-0.684946	-0.320305	0.417783	-0.565090	-0.409285	0.249077	-0.683220	-0.403820	0.209987	-0.676337	-0.346337	0.217058	-0.694244	-0.357016	0.257466	-0.703238	-0.353394	0.076707	-0.675242	-0.333892	0.085287	-0.599101	-0.399866	0.048688	-0.628238	-0.251056	0.035697	-0.706867	-0.202364	0.043127	-0.639209	-0.184560	0.036520	-0.644960	
52	0.2600	-0.375102	1.341377	-0.530873	-0.299428	1.311669	-0.690912	-0.299958	1.306809	-0.371154	-0.256420	1.281781	-0.530613	-0.211339	0.858405	-0.416377	-0.236307	0.853952	-0.653743	-0.253433	0.927694	-0.390963	-0.269995	0.923173	-0.668753	-0.385475	0.899775	-0.484590	-0.393515	0.897606	-0.555642	-0.386098	0.905009	-0.518828	-0.326016	0.694724	-0.343500	-0.316983	0.635287	-0.343236	-0.252792	0.641317	-0.346618	-0.253356	0.702948	-0.347202	-0.315141	0.429676	-0.367406	-0.325518	0.416899	-0.489375	-0.373367	0.251619	-0.352478	-0.373131	0.209058	-0.363081	-0.312174	0.215115	-0.361535	-0.319625	0.254046	-0.351486	-0.336228	0.072667	-0.378185	-0.321734	0.081215	-0.456858	-0.386800	0.046825	-0.412484	-0.225094	0.032866	-0.357797	-0.191921	0.043913	-0.430364	-0.168151	0.035215	-0.427426	-0.358872	0.701064	-0.699323	-0.342818	0.642085	-0.706319	-0.278791	0.653839	-0.711656	-0.287687	0.713142	-0.706940	-0.347486	0.421870	-0.684949	-0.320343	0.417790	-0.565092	-0.409288	0.249074	-0.683207	-0.403818	0.209980	-0.676331	-0.346346	0.217047	-0.694243	-0.357052	0.257436	-0.703271	-0.353370	0.076701	-0.675240	-0.333913	0.085275	-0.599099	-0.399863	0.048703	-0.628250	-0.251053	0.035697	-0.706848	-0.202369	0.043123	-0.639206	-0.184566	0.036529	-0.644947	
53	0.2650	-0.375126	1.341417	-0.530857	-0.299445	1.311675	-0.690898	-0.300007	1.306797	-0.371161	-0.256422	1.281775	-0.530614	-0.211370	0.858407	-0.416388	-0.236348	0.853948	-0.653757	-0.253487	0.927692	-0.390967	-0.270009	0.923169	-0.668767	-0.385517	0.899763	-0.484614	-0.393559	0.897606	-0.555646	-0.386121	0.905012	-0.518851	-0.326049	0.694720	-0.343498	-0.317002	0.635293	-0.343273	-0.252798	0.641331	-0.346648	-0.253372	0.702942	-0.347230	-0.315125	0.429674	-0.367405	-0.325503	0.416891	-0.489395	-0.373334	0.251616	-0.352477	-0.373158	0.208843	-0.363142	-0.312144	0.215118	-0.361552	-0.319593	0.254051	-0.351475	-0.336235	0.072671	-0.378197	-0.321729	0.081201	-0.456861	-0.386782	0.046817	-0.412510	-0.225091	0.032891	-0.357789	-0.191922	0.043917	-0.430380	-0.168159	0.035233	-0.427446	-0.358899	0.701154	-0.699355	-0.342844	0.642083	-0.706324	-0.278799	0.653914	-0.711783	-0.287722	0.713125	-0.706939	-0.347499	0.421862	-0.684960	-0.320367	0.417787	-0.565086	-0.409287	0.249091	-0.683219	-0.403813	0.209960	-0.676325	-0.346345	0.217059	-0.694252	-0.357070	0.257435	-0.703259	-0.353398	0.076704	-0.675253	-0.333905	0.085271	-0.599097	-0.399870	0.048703	-0.628253	-0.251048	0.035688	-0.706867	-0.202369	0.043120	-0.639214	-0.184574	0.036524	-0.644941	
54	0.2700	-0.375134	1.341403	-0.530864	-0.299470	1.311700	-0.690904	-0.300048	1.306799	-0.371152	-0.256454	1.281770	-0.530616	-0.211421	0.858413	-0.416402	-0.236379	0.853954	-0.653776	-0.253512	0.927702	-0.391003	-0.270071	0.923162	-0.668786	-0.385570	0.899799	-0.484632	-0.393599	0.897613	-0.555660	-0.386171	0.905022	-0.518861	-0.326077	0.694698	-0.343545	-0.317012	0.635287	-0.343307	-0.252806	0.641347	-0.346680	-0.253416	0.702963	-0.347237	-0.315088	0.429660	-0.367438	-0.325466	0.416884	-0.489406	-0.373291	0.251615	-0.352477	-0.373092	0.209036	-0.363139	-0.312132	0.215095	-0.361580	-0.319572	0.254163	-0.351225	-0.336222	0.072681	-0.378210	-0.321704	0.081191	-0.456862	-0.386777	0.046869	-0.412487	-0.225080	0.032889	-0.357804	-0.191931	0.043912	-0.430368	-0.168150	0.035220	-0.427433	-0.358926	0.701149	-0.699378	-0.342866	0.642084	-0.706342	-0.278829	0.653909	-0.711782	-0.287761	0.713140	-0.706966	-0.347517	0.421860	-0.684971	-0.320396	0.417779	-0.565092	-0.409312	0.249066	-0.683239	-0.403830	0.209978	-0.676348	-0.346359	0.217040	-0.694242	-0.357070	0.257435	-0.703259	-0.353386	0.076711	-0.675256	-0.333907	0.085274	-0.599104	-0.399865	0.048698	-0.628250	-0.251046	0.035688	-0.706863	-0.202377	0.043130	-0.639204	-0.184563	0.036534	-0.644948	
55	0.2750	-0.375189	1.341420	-0.530837	-0.299492	1.311714	-0.690894	-0.300072	1.306794	-0.371156	-0.256494	1.281787	-0.530590	-0.211467	0.858417	-0.416416	-0.236432	0.853948	-0.653795	-0.253568	0.927712	-0.391003	-0.270130	0.923181	-0.668794	-0.385627	0.899795	-0.484654	-0.393632	0.897609	-0.555684	-0.386219	0.905026	-0.518889	-0.326096	0.694705	-0.343566	-0.317048	0.635279	-0.343317	-0.252830	0.641345	-0.346707	-0.253444	0.702974	-0.347252	-0.315064	0.429668	-0.367443	-0.325449	0.416890	-0.489419	-0.373297	0.251623	-0.352522	-0.373078	0.209048	-0.363109	-0.312121	0.215108	-0.361583	-0.319544	0.254048	-0.351509	-0.336215	0.072668	-0.378205	-0.321701	0.081196	-0.456861	-0.386810	0.046830	-0.412482	-0.225108	0.032904	-0.357803	-0.191921	0.043922	-0.430382	-0.168162	0.035239	-0.427454	-0.358963	0.701138	-0.699376	-0.342906	0.642087	-0.706360	-0.278859	0.653903	-0.711792	-0.287787	0.713129	-0.706957	-0.347550	0.421854	-0.684979	-0.320431	0.417760	-0.565125	-0.409300	0.249093	-0.683227	-0.403837	0.209972	-0.676335	-0.346368	0.217042	-0.694243	-0.357077	0.257413	-0.703248	-0.353372	0.076711	-0.675252	-0.333902	0.085261	-0.599122	-0.399866	0.048703	-0.628240	-0.251043	0.035699	-0.706861	-0.202369	0.043128	-0.639206	-0.184571	0.036521	-0.644963	
56	0.2800	-0.375221	1.341425	-0.530863	-0.299519	1.311732	-0.690901	-0.300122	1.306790	-0.371150	-0.256537	1.281779	-0.530603	-0.211510	0.858427	-0.416425	-0.236463	0.853954	-0.653811	-0.253612	0.927717	-0.391033	-0.270155	0.923176	-0.668805	-0.385670	0.899789	-0.484666	-0.393680	0.897626	-0.555712	-0.386271	0.905038	-0.518899	-0.326122	0.694703	-0.343583	-0.317047	0.635304	-0.343314	-0.252853	0.641365	-0.346730	-0.253475	0.702979	-0.347272	-0.315043	0.429661	-0.367452	-0.325408	0.416892	-0.489449	-0.373270	0.251606	-0.352509	-0.373050	0.209160	-0.363155	-0.312104	0.215092	-0.361610	-0.319533	0.254062	-0.351499	-0.336205	0.072688	-0.378192	-0.321713	0.081204	-0.456873	-0.386798	0.046856	-0.412499	-0.225109	0.032902	-0.357791	-0.191923	0.043922	-0.430383	-0.168158	0.035226	-0.427431	-0.358988	0.701155	-0.699401	-0.342957	0.642041	-0.706380	-0.278899	0.653919	-0.711813	-0.287832	0.713126	-0.706964	-0.347556	0.421845	-0.684991	-0.320448	0.417785	-0.565122	-0.409323	0.249068	-0.683262	-0.403849	0.209966	-0.676364	-0.346366	0.217039	-0.694240	-0.357058	0.257430	-0.703273	-0.353392	0.076711	-0.675243	-0.333883	0.085294	-0.599114	-0.399864	0.048697	-0.628257	-0.251050	0.035695	-0.706871	-0.202371	0.043128	-0.639217	-0.184567	0.036528	-0.644954	
57	0.2850	-0.375247	1.341440	-0.530863	-0.299541	1.311809	-0.690879	-0.300171	1.306791	-0.371154	-0.256570	1.281785	-0.530598	-0.211543	0.858436	-0.416446	-0.236511	0.853962	-0.653818	-0.253671	0.927734	-0.391039	-0.270192	0.923186	-0.668832	-0.385710	0.899797	-0.484679	-0.393709	0.897620	-0.555707	-0.386318	0.905043	-0.518914	-0.326144	0.694672	-0.343607	-0.317090	0.635291	-0.343343	-0.252874	0.641370	-0.346745	-0.253486	0.702981	-0.347297	-0.315017	0.429674	-0.367484	-0.325390	0.416892	-0.489449	-0.373250	0.251609	-0.352502	-0.373031	0.209149	-0.363184	-0.312080	0.215098	-0.361604	-0.319510	0.254073	-0.351500	-0.336194	0.072672	-0.378213	-0.321694	0.081187	-0.456864	-0.386809	0.046808	-0.412503	-0.225103	0.032913	-0.357806	-0.191930	0.043924	-0.430375	-0.168162	0.035241	-0.427451	-0.359017	0.701155	-0.699424	-0.342970	0.642026	-0.706383	-0.278949	0.653922	-0.711829	-0.287865	0.713138	-0.706964	-0.347577	0.421839	-0.684993	-0.320459	0.417779	-0.565135	-0.409322	0.249053	-0.683265	-0.403844	0.209957	-0.676346	-0.346363	0.217051	-0.694260	-0.357080	0.257436	-0.703277	-0.353378	0.076716	-0.675265	-0.333887	0.085286	-0.599118	-0.399874	0.048709	-0.628263	-0.251044	0.035698	-0.706855	-0.202380	0.043140	-0.639224	-0.184564	0.036534	-0.644962	
58	0.2900	-0.375280	1.341421	-0.530850	-0.299600	1.311823	-0.690887	-0.300210	1.306788	-0.371150	-0.256617	1.281774	-0.530591	-0.211593	0.858450	-0.416461	-0.236547	0.853954	-0.653844	-0.253703	0.927749	-0.391058	-0.270223	0.923186	-0.668852	-0.385762	0.899803	-0.484704	-0.393748	0.897627	-0.555724	-0.386356	0.905039	-0.518913	-0.326174	0.694675	-0.343613	-0.317087	0.635301	-0.343360	-0.252872	0.641386	-0.346764	-0.253509	0.703004	-0.347311	-0.314980	0.429658	-0.367491	-0.325336	0.416891	-0.489464	-0.373229	0.251629	-0.352513	-0.373024	0.209147	-0.363179	-0.312062	0.215079	-0.361620	-0.319469	0.254045	-0.351562	-0.336201	0.072688	-0.378186	-0.321694	0.081184	-0.456859	-0.386797	0.046832	-0.412485	-0.225100	0.032916	-0.357798	-0.191930	0.043923	-0.430371	-0.168165	0.035224	-0.427443	-0.359062	0.701148	-0.699427	-0.343019	0.642014	-0.706380	-0.278953	0.653920	-0.711849	-0.287894	0.713120	-0.706970	-0.347593	0.421826	-0.685009	-0.320480	0.417795	-0.565143	-0.409332	0.249058	-0.683266	-0.403845	0.209962	-0.676359	-0.346385	0.217046	-0.694253	-0.357092	0.257415	-0.703275	-0.353388	0.076711	-0.675268	-0.333869	0.085276	-0.599121	-0.399872	0.048693	-0.628251	-0.251046	0.035691	-0.706868	-0.202381	0.043126	-0.639207	-0.184569	0.036525	-0.644968	
